<svg width="240" height="250" viewBox="0 0 240 250" fill="none" xmlns="http://www.w3.org/2000/svg">
<path d="M156.8 192.8C151.2 192.8 145.4 192 139.4 190.4C133.533 188.933 128 187.133 122.8 185C117.6 183 113.067 181.333 109.2 180C102.133 177.467 95.5333 175 89.4 172.6C83.2667 170.2 78.9333 168.733 76.4 168.2C63.4667 164.867 54.3333 163.2 49 163.2C48.0667 163.867 47.2 164.4 46.4 164.8C45.6 165.333 44.7333 165.667 43.8 165.8C43.4 165.933 42.8 166 42 166C39.6 166 38.4 165.2 38.4 163.6C38.4 162.667 39.1333 161.733 40.6 160.8C41.6667 160.267 42.8667 160 44.2 160C45.6667 159.867 47.1333 159.733 48.6 159.6C51.6667 156.933 54.5333 153.533 57.2 149.4C60 145.267 62 142.133 63.2 140C64.2667 138.133 65.2667 136.333 66.2 134.6C67.2667 132.733 68.3333 130.933 69.4 129.2C67.2667 129.733 65.0667 130.267 62.8 130.8C60.5333 131.2 58.3333 131.4 56.2 131.4C52.3333 131.4 48.8 130.6 45.6 129C42.5333 127.4 41 124.467 41 120.2C41 117.4 42.2 114.8 44.6 112.4C47.1333 110 49.7333 108.8 52.4 108.8C54 108.8 54.8 109.467 54.8 110.8C54.8 111.6 54.2 112 53 112C51.5333 112 50.2 112.867 49 114.6C47.8 116.333 47.2 118.133 47.2 120C47.2 121.333 47.6 122.667 48.4 124C49.3333 125.2 50.8667 125.933 53 126.2C55 126.6 57.1333 126.8 59.4 126.8C63.2667 126.8 67.2 126.267 71.2 125.2C73.0667 121.467 74.8 117.8 76.4 114.2C78.1333 110.467 79.8 106.8 81.4 103.2C84.7333 95.8667 88.1333 88.7333 91.6 81.8C95.0667 74.8667 98.4667 68.6667 101.8 63.2C105.133 57.7333 108.133 53.6667 110.8 51C115.867 46.2 120.933 42.8 126 40.8C131.2 38.8 135.867 37.8 140 37.8C140.8 37.8 141.6 37.8667 142.4 38C143.2 38 143.933 38.0667 144.6 38.2C149.533 39 153 40.7333 155 43.4C157 45.9333 158 49 158 52.6C158 54.4667 157.8 56.4 157.4 58.4C155.667 66.8 152.133 74.6667 146.8 82C141.6 89.3333 135.267 96 127.8 102C120.333 107.867 112.333 112.867 103.8 117C95.4 121.133 87.2 124.133 79.2 126C77.4667 128.933 75.6 131.867 73.6 134.8C71.7333 137.6 69.6667 140.4 67.4 143.2C66.0667 145.2 64.1333 147.8 61.6 151C59.0667 154.067 56.4667 156.933 53.8 159.6C55.6667 159.733 57.6667 159.867 59.8 160C62.0667 160.267 64.4667 160.6 67 161C78.0667 162.733 89.1333 165.267 100.2 168.6C111.4 172.067 122.467 175.2 133.4 178C136.467 178.8 140.8 179.8 146.4 181C152.133 182.2 157.467 182.8 162.4 182.8C167.2 182.8 170.867 181.933 173.4 180.2C175.4 179 176.4 177.333 176.4 175.2C176.4 173.6 175.667 172.267 174.2 171.2C173.4 170.533 173 170 173 169.6C173 168.267 173.8 168.067 175.4 169C177.133 170.2 178.333 171.6 179 173.2C179.8 174.8 180.2 176.467 180.2 178.2C180.2 180.2 179.8 182 179 183.6C178.333 185.333 177.467 186.533 176.4 187.2C170.933 190.933 164.4 192.8 156.8 192.8ZM82.2 121.4C97 115 110 107.2 121.2 98C132.4 88.8 141.267 76.6667 147.8 61.6C149.933 56.9333 151 52.8667 151 49.4C151 46.6 150.133 44.4 148.4 42.8C147.467 41.6 145.933 41 143.8 41C139.4 41 134.867 42.5333 130.2 45.6C126.2 48.5333 122.4 52.4 118.8 57.2C115.333 62 112.067 67.0667 109 72.4C105.933 77.7333 103.2 82.8 100.8 87.6C98.5333 92.2667 96.6 96 95 98.8C93.9333 100.933 92.2667 104.067 90 108.2C87.8667 112.333 85.2667 116.733 82.2 121.4Z" fill="black"/>
</svg>
